<svg xmlns="http://www.w3.org/2000/svg" xmlns:xlink="http://www.w3.org/1999/xlink" version="1.1" x="0px" y="0px" viewBox="0 0 100 100" enable-background="new 0 0 100 100" xml:space="preserve">
  <g>
    <g>
      <ellipse cx="39.9" cy="59" rx="5.5" ry="8.3" style="fill:white"/>
      <circle cx="32.2" cy="44.1" r="4.4" style="fill:white"/>
      <circle cx="34.4" cy="75" r="3.3" style="fill:white"/>
      <ellipse cx="59.8" cy="59" rx="5.5" ry="8.3" style="fill:white"/>
      <circle cx="67.5" cy="44.1" r="4.4" style="fill:white"/>
      <circle cx="65.3" cy="75" r="3.3" style="fill:white"/>
      <path d="M93.1,61.2c-2.6-0.2-2.8-1.4-3-4.8c-0.2-2.8-0.4-6.3-3.5-8.6c-1-0.7-2.2-1-3.4-0.8c-1.5,0.3-2.9,1.4-4,2.4    c-0.7-4.8-2.3-8.9-4.8-12.4c2-0.6,6.8-2.4,7.9-5.7c0.4-1.1,0.5-2.9-1.2-5c-1.7-2.1-2.5-4-2.2-5.5c0.3-1.4,1.5-2.8,3.7-3.9    c0.7-0.4,1-1.3,0.6-2c-0.4-0.7-1.3-1-2-0.6c-3,1.6-4.7,3.6-5.2,6c-0.5,2.5,0.5,5.1,2.8,8c1,1.2,0.8,1.9,0.7,2.2    c-0.6,1.9-4.7,3.5-6.6,4c-0.2,0-0.3,0.1-0.5,0.2c-0.6-0.7-1.3-1.3-2-1.9C65.2,28.4,57.9,26,49.9,26c0,0,0,0,0,0c0,0,0,0,0,0    c-8,0-15.3,2.4-20.4,6.8c-0.7,0.6-1.4,1.2-2,1.9c-0.1-0.1-0.3-0.2-0.5-0.2c-1.9-0.5-6-2.1-6.6-4c-0.1-0.2-0.3-0.9,0.7-2.2    c2.3-2.8,3.3-5.5,2.8-8c-0.5-2.4-2.2-4.4-5.2-6c-0.7-0.4-1.6-0.1-2,0.6c-0.4,0.7-0.1,1.6,0.6,2c2.2,1.2,3.4,2.5,3.7,3.9    c0.3,1.5-0.4,3.4-2.2,5.5c-1.7,2.1-1.6,3.9-1.2,5c1.1,3.3,5.8,5.1,7.8,5.7c-2.4,3.4-4,7.4-4.8,12c-1-1-2.3-2-3.8-2.3    c-1.2-0.2-2.4,0-3.4,0.8c-3.1,2.3-3.3,5.8-3.5,8.6c-0.2,3.4-0.4,4.6-3,4.8c-0.8,0.1-1.5,0.8-1.4,1.6C5.5,63.4,6.2,64,7,64    c0,0,0.1,0,0.1,0c5.4-0.4,5.6-4.6,5.8-7.6c0.2-2.5,0.3-4.9,2.3-6.3c0.3-0.2,0.7-0.3,1.1-0.2c1.4,0.3,3.1,2.2,3.9,3.5    c0,0.7-0.1,1.4-0.1,2.1c0,5.7,1,11,2.6,15.5c-0.1,0-0.2,0-0.3,0.1c-1.6,0.6-4.3,2.7-5.4,5.6c-0.8,2.1-0.6,4.3,0.5,6.4    c2.8,5,3.1,7-0.2,9.6C16.6,93,16.5,94,17,94.6c0.3,0.4,0.7,0.6,1.2,0.6c0.3,0,0.6-0.1,0.9-0.3c5.5-4.2,3.7-8.6,1-13.4    c-0.7-1.3-0.8-2.5-0.3-3.8c0.8-2.1,2.9-3.5,3.6-3.8c0.1,0,0.2-0.1,0.4-0.2c3.3,7.8,8.4,13.4,13.2,15.9c0,0,0,0,0,0    c0.3,0.2,5.7,3.2,13.1,3.2c3.7,0,7.9-0.7,12.2-2.9c0.1-0.1,0.3-0.1,0.4-0.2c0.1-0.1,0.2-0.1,0.4-0.2c0,0,0,0,0,0    c3.3-1.8,6.6-4.9,9.3-9c1.2-1.8,2.5-4.1,3.6-6.8c0.1,0.1,0.3,0.2,0.5,0.3c0.7,0.3,2.8,1.7,3.6,3.8c0.5,1.3,0.4,2.6-0.3,3.8    c-2.7,4.9-4.5,9.2,1,13.4c0.3,0.2,0.6,0.3,0.9,0.3c0.5,0,0.9-0.2,1.2-0.6c0.5-0.7,0.4-1.6-0.3-2.1c-3.3-2.6-3-4.5-0.2-9.6    c1.1-2.1,1.3-4.2,0.5-6.4c-1.1-2.9-3.8-5-5.4-5.6c-0.2-0.1-0.3-0.1-0.5-0.1c1.5-4.2,2.5-9.4,2.5-15.5c0-0.5,0-1.1,0-1.6    c0.1-0.1,0.1-0.1,0.2-0.2c0.7-1,2.5-3.3,4-3.5c0.4-0.1,0.7,0,1.1,0.2c2,1.5,2.1,3.8,2.3,6.3c0.2,3.1,0.5,7.3,5.8,7.6    c0,0,0.1,0,0.1,0c0.8,0,1.4-0.6,1.5-1.4C94.6,62,93.9,61.3,93.1,61.2z M23.1,55.4c0-6.1,1.8-25.6,25.2-26.4v50.4    c0,8.6-4.3,8.6-5.8,8.6c-0.4,0-0.9,0-1.4-0.1C34.9,87,23.1,75,23.1,55.4z M58.5,87.8c-0.5,0.1-0.9,0.1-1.4,0.1    c-1.4,0-5.7,0-5.7-8.6V29c23.3,0.8,25.2,20.3,25.2,26.4C76.6,75,64.8,87,58.5,87.8z" style="fill:white"/>
    </g>
    <path d="M56.4,11.1c0.2-1.4,0.7-2.4,1.5-2.9c1-0.7,2.3-0.3,2.4-0.3c0.8,0.2,1.6-0.2,1.9-1c0.2-0.8-0.2-1.6-1-1.9   c-0.3-0.1-2.7-0.8-4.8,0.6C54.9,6.5,54,8,53.6,10.1c-1.3-0.3-2.6-0.5-3.9-0.5c-1.4,0-2.8,0.2-4.1,0.5c-0.4-2.1-1.4-3.6-2.8-4.5   c-2.2-1.4-4.6-0.7-4.8-0.6c-0.8,0.2-1.2,1.1-1,1.9c0.2,0.8,1.1,1.2,1.9,1c0,0,1.3-0.4,2.4,0.3c0.8,0.5,1.3,1.5,1.5,3   c-4.9,2.2-8.9,6.5-8.9,11.8c0,2.3,0.9,3.9,2.6,4.9c1.2,0.7,2.9,1,5.4,1c1.1,0,2.3,0,3.5-0.1c2.8-0.1,5.9-0.1,8.7,0   c1.2,0.1,2.4,0.1,3.5,0.1c2.4,0,8,0,8-5.8C65.5,17.6,61.4,13.2,56.4,11.1z M39.7,17.8c0-1.4,1.1-2.5,2.5-2.5c1.4,0,2.5,1.1,2.5,2.5   c0,1.4-1.1,2.5-2.5,2.5C40.8,20.3,39.7,19.2,39.7,17.8z M54.7,17.8c0-1.4,1.1-2.5,2.5-2.5c1.4,0,2.5,1.1,2.5,2.5   c0,1.4-1.1,2.5-2.5,2.5C55.8,20.3,54.7,19.2,54.7,17.8z" style="fill:white"/>
  </g>
</svg>
