<?xml version="1.0" encoding="UTF-8" ?>
<svg xmlns="http://www.w3.org/2000/svg" xmlns:xlink="http://www.w3.org/1999/xlink" height="600" width="520">
  <g id="background">
    <polygon points="260,600 0.2,450 0.2,150 260,0 519.8,150 519.8,450" style="fill:#C04384;" />
    <polygon points="260,585 13.2,442.5 13.2,157.5 260,15 506.8,157.5 506.8 442.5" style="fill:white;" />
    <polygon points="260,30 26.2,165 26.2,300 493.8,300 493.8,165" style="fill:#C04384;" />
  </g>
  <g id="package: ladybird">
    <path style="fill:#3C3D00"  d="M 52.23 313.00 L 52.23 404.72 L 37.41 404.72 L 37.41 314.27 L 50.33 313.00 M 100.75 378.12 Z L 96.19 378.12 L 94.58 378.13 L 93.07 378.15 L 91.66 378.18 L 90.35 378.23 L 89.16 378.31 L 88.07 378.39 L 87.10 378.49 L 86.23 378.60 L 85.46 378.73 L 84.79 378.88 L 83.71 379.19 L 82.74 379.58 L 81.89 380.06 L 81.15 380.61 L 80.52 381.23 L 80.01 381.94 L 79.61 382.72 L 79.32 383.58 L 79.15 384.52 L 79.09 385.53 L 79.12 386.30 L 79.20 387.03 L 79.32 387.72 L 79.50 388.39 L 79.72 389.02 L 80.01 389.62 L 80.34 390.18 L 80.72 390.71 L 81.15 391.21 L 81.62 391.67 L 82.15 392.10 L 82.71 392.46 L 83.31 392.80 L 83.94 393.09 L 84.60 393.33 L 85.31 393.53 L 86.05 393.69 L 86.82 393.79 L 87.62 393.87 L 88.47 393.89 L 89.30 393.87 L 90.10 393.81 L 90.89 393.71 L 91.67 393.56 L 92.42 393.38 L 93.16 393.16 L 93.89 392.90 L 94.59 392.59 L 95.27 392.24 L 95.94 391.86 L 96.86 391.23 L 97.68 390.52 L 98.40 389.73 L 99.02 388.88 L 99.55 387.94 L 99.98 386.92 L 100.32 385.83 L 100.56 384.66 L 100.71 383.43 L 100.75 382.11 M 115.39 383.75 Z L 115.49 385.28 L 115.78 386.68 L 116.27 387.97 L 116.95 389.13 L 117.83 390.16 L 118.90 391.09 L 120.17 391.89 L 121.64 392.57 L 123.29 393.13 L 125.14 393.57 L 118.43 405.99 L 116.76 405.91 L 115.12 405.71 L 113.54 405.37 L 112.00 404.88 L 110.50 404.26 L 109.04 403.50 L 107.64 402.60 L 106.26 401.57 L 104.95 400.39 L 103.67 399.08 L 102.72 399.78 L 101.80 400.45 L 100.89 401.07 L 100.01 401.66 L 99.16 402.20 L 98.33 402.71 L 97.52 403.17 L 96.74 403.60 L 95.98 403.99 L 95.24 404.34 L 94.49 404.65 L 93.66 404.93 L 92.75 405.18 L 91.78 405.40 L 90.74 405.58 L 89.62 405.72 L 88.42 405.84 L 87.16 405.93 L 85.83 405.97 L 84.41 405.99 L 82.99 405.95 L 81.60 405.83 L 80.24 405.63 L 78.92 405.36 L 77.63 405.01 L 76.39 404.57 L 75.17 404.07 L 74.00 403.48 L 72.85 402.80 L 71.74 402.06 L 70.33 400.94 L 69.06 399.70 L 67.93 398.31 L 66.96 396.81 L 66.14 395.17 L 65.47 393.40 L 64.94 391.50 L 64.57 389.47 L 64.34 387.31 L 64.27 385.02 L 64.32 383.23 L 64.48 381.53 L 64.74 379.92 L 65.10 378.41 L 65.57 376.99 L 66.15 375.66 L 66.81 374.42 L 67.59 373.28 L 68.48 372.24 L 69.46 371.28 L 70.58 370.41 L 71.85 369.63 L 73.25 368.94 L 74.81 368.35 L 76.52 367.86 L 78.39 367.44 L 80.40 367.13 L 82.56 366.89 L 84.87 366.76 L 87.33 366.72 L 88.85 366.72 L 90.32 366.74 L 91.76 366.76 L 93.16 366.79 L 94.54 366.84 L 95.87 366.89 L 97.16 366.96 L 98.42 367.04 L 99.63 367.13 L 100.82 367.22 L 100.82 363.93 L 100.69 361.60 L 100.31 359.50 L 99.67 357.66 L 98.77 356.06 L 97.61 354.71 L 96.19 353.60 L 94.53 352.75 L 92.59 352.13 L 90.41 351.76 L 87.96 351.64 L 86.36 351.68 L 84.73 351.82 L 83.05 352.04 L 81.35 352.36 L 79.60 352.76 L 77.82 353.25 L 76.01 353.85 L 74.16 354.51 L 72.27 355.28 L 70.35 356.14 L 66.87 343.21 L 69.21 342.15 L 71.55 341.21 L 73.89 340.38 L 76.22 339.65 L 78.54 339.03 L 80.86 338.53 L 83.19 338.14 L 85.50 337.86 L 87.81 337.69 L 90.11 337.64 L 92.37 337.69 L 94.54 337.84 L 96.62 338.11 L 98.59 338.47 L 100.47 338.94 L 102.26 339.51 L 103.96 340.19 L 105.56 340.97 L 107.07 341.84 L 108.48 342.83 L 109.79 343.93 L 110.95 345.16 L 111.98 346.50 L 112.87 347.97 L 113.63 349.55 L 114.26 351.26 L 114.74 353.09 L 115.09 355.04 L 115.31 357.11 L 115.39 359.30 M 166.31 351.51 Z L 164.60 351.57 L 162.97 351.71 L 161.41 351.98 L 159.92 352.35 L 158.49 352.81 L 157.15 353.38 L 155.88 354.06 L 154.68 354.84 L 153.56 355.71 L 152.51 356.71 L 151.54 357.78 L 150.69 358.93 L 149.93 360.16 L 149.26 361.47 L 148.71 362.85 L 148.25 364.31 L 147.90 365.84 L 147.65 367.44 L 147.49 369.13 L 147.44 370.90 L 147.48 372.65 L 147.61 374.35 L 147.83 375.98 L 148.12 377.56 L 148.50 379.08 L 148.97 380.53 L 149.52 381.94 L 150.16 383.28 L 150.88 384.56 L 151.68 385.78 L 152.57 386.91 L 153.50 387.93 L 154.50 388.81 L 155.56 389.59 L 156.68 390.25 L 157.85 390.79 L 159.08 391.20 L 160.38 391.49 L 161.73 391.67 L 163.15 391.74 L 164.58 391.69 L 166.01 391.57 L 167.41 391.37 L 168.81 391.08 L 170.18 390.72 L 171.54 390.28 L 172.89 389.75 L 174.22 389.14 L 175.53 388.45 L 176.83 387.68 L 176.83 352.91 L 175.73 352.64 L 174.65 352.40 L 173.58 352.19 L 172.50 352.01 L 171.45 351.86 L 170.40 351.73 L 169.37 351.64 L 168.34 351.57 L 167.33 351.52 M 191.65 404.72 Z L 180.44 404.72 L 177.78 399.78 L 176.11 400.96 L 174.42 402.01 L 172.71 402.95 L 170.97 403.75 L 169.22 404.44 L 167.43 405.00 L 165.64 405.43 L 163.82 405.74 L 161.98 405.93 L 160.11 405.99 L 157.49 405.89 L 154.99 405.62 L 152.61 405.17 L 150.35 404.53 L 148.22 403.71 L 146.21 402.71 L 144.32 401.51 L 142.56 400.15 L 140.91 398.60 L 139.39 396.87 L 138.01 395.00 L 136.78 393.06 L 135.69 391.03 L 134.74 388.92 L 133.94 386.73 L 133.28 384.46 L 132.77 382.11 L 132.40 379.68 L 132.18 377.17 L 132.11 374.57 L 132.21 371.05 L 132.50 367.72 L 132.97 364.54 L 133.65 361.54 L 134.52 358.71 L 135.58 356.06 L 136.83 353.57 L 138.27 351.26 L 139.91 349.12 L 141.74 347.14 L 143.73 345.35 L 145.83 343.74 L 148.07 342.33 L 150.43 341.10 L 152.91 340.06 L 155.50 339.21 L 158.23 338.55 L 161.08 338.08 L 164.04 337.80 L 167.14 337.70 L 168.09 337.70 L 169.03 337.73 L 169.99 337.76 L 170.94 337.80 L 172.88 337.93 L 173.86 338.01 L 174.84 338.11 L 175.84 338.21 L 176.83 338.34 L 176.83 314.27 L 189.37 313.00 L 191.65 313.00 M 227.63 426.26 Z L 225.95 427.92 L 224.26 429.40 L 222.56 430.71 L 220.84 431.85 L 219.11 432.81 L 217.37 433.60 L 215.62 434.21 L 213.85 434.65 L 212.07 434.92 L 210.28 435.00 L 208.49 434.96 L 206.71 434.82 L 204.94 434.59 L 203.18 434.28 L 201.44 433.87 L 199.72 433.37 L 198.00 432.79 L 196.30 432.12 L 194.60 431.36 L 192.92 430.50 L 196.66 418.09 L 197.78 418.58 L 198.88 419.02 L 199.97 419.41 L 201.04 419.74 L 202.09 420.03 L 203.13 420.26 L 204.15 420.45 L 205.15 420.58 L 206.14 420.65 L 207.11 420.68 L 208.07 420.64 L 209.03 420.50 L 209.98 420.28 L 210.92 419.98 L 211.86 419.58 L 212.80 419.09 L 213.73 418.51 L 214.66 417.84 L 215.57 417.09 L 216.48 416.25 L 217.37 415.33 L 218.20 414.36 L 218.98 413.35 L 219.72 412.27 L 220.40 411.13 L 221.02 409.95 L 221.60 408.70 L 222.12 407.41 L 222.60 406.06 L 223.01 404.66 L 200.46 338.97 L 216.55 338.97 L 231.31 381.92 L 231.69 381.92 L 246.95 338.97 L 263.04 338.97 L 240.81 403.58 L 239.81 406.32 L 238.75 408.94 L 237.61 411.48 L 236.39 413.90 L 235.11 416.22 L 233.75 418.44 L 232.33 420.55 L 230.84 422.55 L 229.27 424.45 M 286.73 389.96 Z L 287.93 390.32 L 289.17 390.65 L 290.43 390.93 L 291.70 391.18 L 293.00 391.39 L 294.33 391.56 L 295.69 391.69 L 297.08 391.79 L 298.48 391.84 L 299.91 391.86 L 301.33 391.80 L 302.69 391.62 L 304.00 391.32 L 305.25 390.91 L 306.45 390.37 L 307.59 389.72 L 308.69 388.94 L 309.72 388.05 L 310.71 387.04 L 311.63 385.91 L 312.48 384.71 L 313.25 383.46 L 313.93 382.17 L 314.51 380.84 L 315.00 379.46 L 315.40 378.04 L 315.72 376.58 L 315.94 375.07 L 316.08 373.50 L 316.12 371.91 L 316.08 370.30 L 315.96 368.75 L 315.75 367.23 L 315.46 365.77 L 315.08 364.34 L 314.62 362.96 L 314.07 361.62 L 313.45 360.32 L 312.74 359.06 L 311.94 357.85 L 311.08 356.72 L 310.15 355.70 L 309.15 354.82 L 308.10 354.05 L 306.97 353.39 L 305.79 352.86 L 304.54 352.46 L 303.23 352.17 L 301.86 352.00 L 300.41 351.96 L 298.98 352.00 L 297.56 352.11 L 296.15 352.33 L 294.77 352.61 L 293.38 352.98 L 292.03 353.43 L 290.68 353.97 L 289.35 354.59 L 288.04 355.29 L 286.73 356.07 M 298.58 405.99 Z L 295.97 405.93 L 293.34 405.76 L 290.70 405.48 L 288.05 405.08 L 285.39 404.57 L 282.72 403.96 L 280.04 403.22 L 277.34 402.38 L 274.63 401.42 L 271.91 400.35 L 271.91 315.53 L 284.45 313.00 L 286.73 313.00 L 286.73 343.28 L 288.33 342.21 L 289.94 341.27 L 291.57 340.44 L 293.21 339.71 L 294.87 339.10 L 296.56 338.59 L 298.26 338.20 L 299.97 337.93 L 301.70 337.76 L 303.45 337.70 L 306.08 337.79 L 308.58 338.06 L 310.96 338.53 L 313.22 339.16 L 315.35 339.98 L 317.36 340.99 L 319.25 342.17 L 321.01 343.54 L 322.66 345.09 L 324.17 346.83 L 325.56 348.68 L 326.80 350.64 L 327.88 352.66 L 328.83 354.76 L 329.64 356.96 L 330.29 359.23 L 330.80 361.58 L 331.17 364.01 L 331.39 366.53 L 331.45 369.12 L 331.37 372.28 L 331.11 375.33 L 330.68 378.27 L 330.08 381.08 L 329.30 383.79 L 328.36 386.37 L 327.24 388.85 L 325.94 391.22 L 324.47 393.47 L 322.84 395.60 L 321.05 397.57 L 319.11 399.34 L 317.04 400.90 L 314.82 402.25 L 312.47 403.39 L 309.97 404.32 L 307.34 405.05 L 304.56 405.57 L 301.64 405.88 M 343.49 338.97 Z L 358.31 338.97 L 358.31 404.72 L 343.49 404.72 M 357.11 327.82 Z L 356.58 328.30 L 356.03 328.73 L 355.46 329.11 L 354.86 329.44 L 354.24 329.72 L 353.60 329.94 L 352.95 330.12 L 352.27 330.25 L 351.56 330.32 L 350.83 330.36 L 350.12 330.32 L 349.42 330.25 L 348.73 330.13 L 348.08 329.96 L 347.45 329.73 L 346.84 329.47 L 346.25 329.14 L 345.69 328.77 L 345.14 328.35 L 344.63 327.89 L 344.15 327.38 L 343.72 326.85 L 343.34 326.29 L 343.01 325.71 L 342.73 325.11 L 342.51 324.49 L 342.33 323.83 L 342.20 323.16 L 342.13 322.46 L 342.09 321.74 L 342.13 321.01 L 342.20 320.32 L 342.33 319.64 L 342.51 318.99 L 342.73 318.35 L 343.01 317.74 L 343.34 317.16 L 343.72 316.59 L 344.15 316.05 L 344.63 315.53 L 345.14 315.05 L 345.69 314.62 L 346.25 314.24 L 346.84 313.91 L 347.45 313.63 L 348.08 313.40 L 348.73 313.22 L 349.42 313.10 L 350.12 313.02 L 350.83 313.00 L 351.56 313.02 L 352.27 313.11 L 352.95 313.23 L 353.60 313.41 L 354.24 313.64 L 354.86 313.93 L 355.46 314.27 L 356.03 314.66 L 356.58 315.10 L 357.11 315.60 L 357.59 316.12 L 358.02 316.67 L 358.40 317.24 L 358.73 317.82 L 359.01 318.43 L 359.24 319.05 L 359.42 319.69 L 359.54 320.36 L 359.62 321.04 L 359.64 321.74 L 359.62 322.44 L 359.54 323.11 L 359.42 323.78 L 359.24 324.41 L 359.01 325.04 L 358.73 325.63 L 358.40 326.21 L 358.02 326.77 L 357.59 327.31 M 411.39 355.31 Z L 410.31 354.69 L 409.21 354.12 L 408.08 353.63 L 406.94 353.20 L 405.78 352.84 L 404.59 352.55 L 403.39 352.32 L 402.17 352.15 L 400.94 352.05 L 399.67 352.02 L 398.41 352.06 L 397.14 352.21 L 395.87 352.45 L 394.61 352.79 L 393.34 353.22 L 392.07 353.75 L 390.80 354.37 L 389.54 355.10 L 388.27 355.92 L 387.00 356.83 L 387.00 404.72 L 372.18 404.72 L 372.18 338.97 L 384.72 338.97 L 386.24 344.36 L 387.83 343.09 L 389.42 341.96 L 391.04 340.97 L 392.66 340.10 L 394.31 339.36 L 395.97 338.77 L 397.65 338.31 L 399.35 337.97 L 401.06 337.77 L 402.78 337.70 L 404.48 337.73 L 406.09 337.81 L 407.62 337.94 L 409.08 338.12 L 410.44 338.35 L 411.74 338.63 L 412.94 338.97 L 414.07 339.36 L 415.12 339.80 L 416.08 340.30 M 457.25 351.51 Z L 455.54 351.57 L 453.91 351.71 L 452.34 351.98 L 450.85 352.35 L 449.43 352.81 L 448.09 353.38 L 446.82 354.06 L 445.62 354.84 L 444.50 355.71 L 443.44 356.71 L 442.48 357.78 L 441.63 358.93 L 440.87 360.16 L 440.20 361.47 L 439.64 362.85 L 439.19 364.31 L 438.84 365.84 L 438.59 367.44 L 438.43 369.13 L 438.38 370.90 L 438.42 372.65 L 438.54 374.35 L 438.77 375.98 L 439.06 377.56 L 439.44 379.08 L 439.91 380.53 L 440.46 381.94 L 441.10 383.28 L 441.82 384.56 L 442.62 385.78 L 443.51 386.91 L 444.44 387.93 L 445.44 388.81 L 446.49 389.59 L 447.61 390.25 L 448.79 390.79 L 450.02 391.20 L 451.32 391.49 L 452.67 391.67 L 454.09 391.74 L 455.52 391.69 L 456.95 391.57 L 458.35 391.37 L 459.74 391.08 L 461.12 390.72 L 462.48 390.28 L 463.83 389.75 L 465.16 389.14 L 466.47 388.45 L 467.77 387.68 L 467.77 352.91 L 466.67 352.64 L 465.59 352.40 L 464.52 352.19 L 463.44 352.01 L 462.38 351.86 L 461.34 351.73 L 460.30 351.64 L 459.28 351.57 L 458.27 351.52 M 482.59 404.72 Z L 471.38 404.72 L 468.72 399.78 L 467.05 400.96 L 465.36 402.01 L 463.65 402.95 L 461.91 403.75 L 460.16 404.44 L 458.37 405.00 L 456.58 405.43 L 454.76 405.74 L 452.91 405.93 L 451.04 405.99 L 448.43 405.89 L 445.92 405.62 L 443.55 405.17 L 441.29 404.53 L 439.16 403.71 L 437.15 402.71 L 435.26 401.51 L 433.50 400.15 L 431.85 398.60 L 430.33 396.87 L 428.95 395.00 L 427.71 393.06 L 426.63 391.03 L 425.68 388.92 L 424.87 386.73 L 424.22 384.46 L 423.71 382.11 L 423.34 379.68 L 423.12 377.17 L 423.05 374.57 L 423.15 371.05 L 423.44 367.72 L 423.91 364.54 L 424.59 361.54 L 425.45 358.71 L 426.52 356.06 L 427.77 353.57 L 429.21 351.26 L 430.85 349.12 L 432.67 347.14 L 434.67 345.35 L 436.77 343.74 L 439.01 342.33 L 441.36 341.10 L 443.84 340.06 L 446.44 339.21 L 449.17 338.55 L 452.02 338.08 L 454.98 337.80 L 458.08 337.70 L 459.03 337.70 L 459.97 337.73 L 460.93 337.76 L 461.88 337.80 L 463.82 337.93 L 464.80 338.01 L 465.78 338.11 L 466.78 338.21 L 467.77 338.34 L 467.77 314.27 L 480.31 313.00 L 482.59 313.00"/>
  </g>
<svg viewBox="0 0 100 100" x="144.0" y="-130.0" width="45.0%">
  <g>    <g>      <ellipse cx="39.9" cy="59" rx="5.5" ry="8.3" style="fill:white"/>      <circle cx="32.2" cy="44.1" r="4.4" style="fill:white"/>      <circle cx="34.4" cy="75" r="3.3" style="fill:white"/>      <ellipse cx="59.8" cy="59" rx="5.5" ry="8.3" style="fill:white"/>      <circle cx="67.5" cy="44.1" r="4.4" style="fill:white"/>      <circle cx="65.3" cy="75" r="3.3" style="fill:white"/>      <path d="M93.1,61.2c-2.6-0.2-2.8-1.4-3-4.8c-0.2-2.8-0.4-6.3-3.5-8.6c-1-0.7-2.2-1-3.4-0.8c-1.5,0.3-2.9,1.4-4,2.4    c-0.7-4.8-2.3-8.9-4.8-12.4c2-0.6,6.8-2.4,7.9-5.7c0.4-1.1,0.5-2.9-1.2-5c-1.7-2.1-2.5-4-2.2-5.5c0.3-1.4,1.5-2.8,3.7-3.9    c0.7-0.4,1-1.3,0.6-2c-0.4-0.7-1.3-1-2-0.6c-3,1.6-4.7,3.6-5.2,6c-0.5,2.5,0.5,5.1,2.8,8c1,1.2,0.8,1.9,0.7,2.2    c-0.6,1.9-4.7,3.5-6.6,4c-0.2,0-0.3,0.1-0.5,0.2c-0.6-0.7-1.3-1.3-2-1.9C65.2,28.4,57.9,26,49.9,26c0,0,0,0,0,0c0,0,0,0,0,0    c-8,0-15.3,2.4-20.4,6.8c-0.7,0.6-1.4,1.2-2,1.9c-0.1-0.1-0.3-0.2-0.5-0.2c-1.9-0.5-6-2.1-6.6-4c-0.1-0.2-0.3-0.9,0.7-2.2    c2.3-2.8,3.3-5.5,2.8-8c-0.5-2.4-2.2-4.4-5.2-6c-0.7-0.4-1.6-0.1-2,0.6c-0.4,0.7-0.1,1.6,0.6,2c2.2,1.2,3.4,2.5,3.7,3.9    c0.3,1.5-0.4,3.4-2.2,5.5c-1.7,2.1-1.6,3.9-1.2,5c1.1,3.3,5.8,5.1,7.8,5.7c-2.4,3.4-4,7.4-4.8,12c-1-1-2.3-2-3.8-2.3    c-1.2-0.2-2.4,0-3.4,0.8c-3.1,2.3-3.3,5.8-3.5,8.6c-0.2,3.4-0.4,4.6-3,4.8c-0.8,0.1-1.5,0.8-1.4,1.6C5.5,63.4,6.2,64,7,64    c0,0,0.1,0,0.1,0c5.4-0.4,5.6-4.6,5.8-7.6c0.2-2.5,0.3-4.9,2.3-6.3c0.3-0.2,0.7-0.3,1.1-0.2c1.4,0.3,3.1,2.2,3.9,3.5    c0,0.7-0.1,1.4-0.1,2.1c0,5.7,1,11,2.6,15.5c-0.1,0-0.2,0-0.3,0.1c-1.6,0.6-4.3,2.7-5.4,5.6c-0.8,2.1-0.6,4.3,0.5,6.4    c2.8,5,3.1,7-0.2,9.6C16.6,93,16.5,94,17,94.6c0.3,0.4,0.7,0.6,1.2,0.6c0.3,0,0.6-0.1,0.9-0.3c5.5-4.2,3.7-8.6,1-13.4    c-0.7-1.3-0.8-2.5-0.3-3.8c0.8-2.1,2.9-3.5,3.6-3.8c0.1,0,0.2-0.1,0.4-0.2c3.3,7.8,8.4,13.4,13.2,15.9c0,0,0,0,0,0    c0.3,0.2,5.7,3.2,13.1,3.2c3.7,0,7.9-0.7,12.2-2.9c0.1-0.1,0.3-0.1,0.4-0.2c0.1-0.1,0.2-0.1,0.4-0.2c0,0,0,0,0,0    c3.3-1.8,6.6-4.9,9.3-9c1.2-1.8,2.5-4.1,3.6-6.8c0.1,0.1,0.3,0.2,0.5,0.3c0.7,0.3,2.8,1.7,3.6,3.8c0.5,1.3,0.4,2.6-0.3,3.8    c-2.7,4.9-4.5,9.2,1,13.4c0.3,0.2,0.6,0.3,0.9,0.3c0.5,0,0.9-0.2,1.2-0.6c0.5-0.7,0.4-1.6-0.3-2.1c-3.3-2.6-3-4.5-0.2-9.6    c1.1-2.1,1.3-4.2,0.5-6.4c-1.1-2.9-3.8-5-5.4-5.6c-0.2-0.1-0.3-0.1-0.5-0.1c1.5-4.2,2.5-9.4,2.5-15.5c0-0.5,0-1.1,0-1.6    c0.1-0.1,0.1-0.1,0.2-0.2c0.7-1,2.5-3.3,4-3.5c0.4-0.1,0.7,0,1.1,0.2c2,1.5,2.1,3.8,2.3,6.3c0.2,3.1,0.5,7.3,5.8,7.6    c0,0,0.1,0,0.1,0c0.8,0,1.4-0.6,1.5-1.4C94.6,62,93.9,61.3,93.1,61.2z M23.1,55.4c0-6.1,1.8-25.6,25.2-26.4v50.4    c0,8.6-4.3,8.6-5.8,8.6c-0.4,0-0.9,0-1.4-0.1C34.9,87,23.1,75,23.1,55.4z M58.5,87.8c-0.5,0.1-0.9,0.1-1.4,0.1    c-1.4,0-5.7,0-5.7-8.6V29c23.3,0.8,25.2,20.3,25.2,26.4C76.6,75,64.8,87,58.5,87.8z" style="fill:white"/>    </g>    <path d="M56.4,11.1c0.2-1.4,0.7-2.4,1.5-2.9c1-0.7,2.3-0.3,2.4-0.3c0.8,0.2,1.6-0.2,1.9-1c0.2-0.8-0.2-1.6-1-1.9   c-0.3-0.1-2.7-0.8-4.8,0.6C54.9,6.5,54,8,53.6,10.1c-1.3-0.3-2.6-0.5-3.9-0.5c-1.4,0-2.8,0.2-4.1,0.5c-0.4-2.1-1.4-3.6-2.8-4.5   c-2.2-1.4-4.6-0.7-4.8-0.6c-0.8,0.2-1.2,1.1-1,1.9c0.2,0.8,1.1,1.2,1.9,1c0,0,1.3-0.4,2.4,0.3c0.8,0.5,1.3,1.5,1.5,3   c-4.9,2.2-8.9,6.5-8.9,11.8c0,2.3,0.9,3.9,2.6,4.9c1.2,0.7,2.9,1,5.4,1c1.1,0,2.3,0,3.5-0.1c2.8-0.1,5.9-0.1,8.7,0   c1.2,0.1,2.4,0.1,3.5,0.1c2.4,0,8,0,8-5.8C65.5,17.6,61.4,13.2,56.4,11.1z M39.7,17.8c0-1.4,1.1-2.5,2.5-2.5c1.4,0,2.5,1.1,2.5,2.5   c0,1.4-1.1,2.5-2.5,2.5C40.8,20.3,39.7,19.2,39.7,17.8z M54.7,17.8c0-1.4,1.1-2.5,2.5-2.5c1.4,0,2.5,1.1,2.5,2.5   c0,1.4-1.1,2.5-2.5,2.5C55.8,20.3,54.7,19.2,54.7,17.8z" style="fill:white"/>  </g>
</svg>
</svg>
